<svg width="24" height="24" viewBox="0 0 24 24" fill="none" xmlns="http://www.w3.org/2000/svg">
<path fill-rule="evenodd" clip-rule="evenodd" d="M11.9999 22.5015C11.801 22.5015 11.6102 22.4224 11.4696 22.2818C11.3289 22.1411 11.2499 21.9504 11.2499 21.7515L11.2499 4.06196L6.53091 8.78246C6.39008 8.92329 6.19907 9.00241 5.99991 9.00241C5.80074 9.00241 5.60974 8.92329 5.46891 8.78246C5.32808 8.64163 5.24896 8.45063 5.24896 8.25146C5.24896 8.0523 5.32808 7.86129 5.46891 7.72046L11.4689 1.72046C11.5386 1.65062 11.6213 1.5952 11.7125 1.55739C11.8036 1.51958 11.9013 1.50012 11.9999 1.50012C12.0986 1.50012 12.1962 1.51958 12.2874 1.55739C12.3785 1.59521 12.4612 1.65062 12.5309 1.72046L18.5309 7.72046C18.6717 7.86129 18.7509 8.0523 18.7509 8.25146C18.7509 8.45063 18.6717 8.64163 18.5309 8.78246C18.3901 8.92329 18.1991 9.00241 17.9999 9.00241C17.8007 9.00241 17.6097 8.92329 17.4689 8.78246L12.7499 4.06196L12.7499 21.7515C12.7499 21.9504 12.6709 22.1411 12.5302 22.2818C12.3896 22.4224 12.1988 22.5015 11.9999 22.5015Z" fill="white"/>
</svg>
