<svg width="24" height="24" viewBox="0 0 24 24" fill="none" xmlns="http://www.w3.org/2000/svg">
<path fill-rule="evenodd" clip-rule="evenodd" d="M22.5005 12.0007C22.5005 12.1996 22.4215 12.3904 22.2808 12.531C22.1402 12.6717 21.9494 12.7507 21.7505 12.7507L4.06099 12.7507L8.78149 17.4697C8.92232 17.6105 9.00143 17.8015 9.00143 18.0007C9.00143 18.1999 8.92232 18.3909 8.78149 18.5317C8.64066 18.6725 8.44965 18.7517 8.25049 18.7517C8.05132 18.7517 7.86032 18.6725 7.71949 18.5317L1.71949 12.5317C1.64964 12.462 1.59423 12.3793 1.55642 12.2882C1.51861 12.197 1.49915 12.0994 1.49915 12.0007C1.49915 11.9021 1.51861 11.8044 1.55642 11.7133C1.59423 11.6221 1.64964 11.5394 1.71949 11.4697L7.71949 5.4697C7.86032 5.32887 8.05132 5.24976 8.25049 5.24976C8.44965 5.24976 8.64066 5.32887 8.78149 5.4697C8.92232 5.61053 9.00143 5.80154 9.00143 6.0007C9.00143 6.19987 8.92232 6.39087 8.78149 6.5317L4.06099 11.2507L21.7505 11.2507C21.9494 11.2507 22.1402 11.3297 22.2808 11.4704C22.4215 11.611 22.5005 11.8018 22.5005 12.0007Z" fill="white"/>
</svg>
