<svg width="24" height="24" viewBox="0 0 24 24" fill="none" xmlns="http://www.w3.org/2000/svg">
<path fill-rule="evenodd" clip-rule="evenodd" d="M1.49927 12.0008C1.49927 11.8018 1.57829 11.6111 1.71894 11.4704C1.85959 11.3298 2.05036 11.2508 2.24927 11.2508L19.9388 11.2508L15.2183 6.53176C15.0774 6.39093 14.9983 6.19992 14.9983 6.00076C14.9983 5.8016 15.0774 5.61059 15.2183 5.46976C15.3591 5.32893 15.5501 5.24981 15.7493 5.24981C15.9484 5.24981 16.1394 5.32893 16.2803 5.46976L22.2803 11.4698C22.3501 11.5394 22.4055 11.6222 22.4433 11.7133C22.4811 11.8044 22.5006 11.9021 22.5006 12.0008C22.5006 12.0994 22.4811 12.1971 22.4433 12.2882C22.4055 12.3793 22.3501 12.4621 22.2803 12.5318L16.2803 18.5318C16.1394 18.6726 15.9484 18.7517 15.7493 18.7517C15.5501 18.7517 15.3591 18.6726 15.2183 18.5318C15.0774 18.3909 14.9983 18.1999 14.9983 18.0008C14.9983 17.8016 15.0774 17.6106 15.2183 17.4698L19.9388 12.7508L2.24927 12.7508C2.05036 12.7508 1.85959 12.6717 1.71894 12.5311C1.57829 12.3904 1.49927 12.1997 1.49927 12.0008Z" fill="white"/>
</svg>
