<svg width="36" height="24" viewBox="0 0 36 24" fill="none" xmlns="http://www.w3.org/2000/svg">
<g clip-path="url(#clip0_2795_95398)">
<path d="M35.3792 23.726H0.620718C0.277945 23.726 0 23.4486 0 23.1065V0.806961C0 0.464882 0.277945 0.1875 0.620718 0.1875H35.3793C35.7221 0.1875 36 0.464882 36 0.806961V23.1065C35.9999 23.4487 35.722 23.726 35.3792 23.726Z" fill="#41479B"/>
<path d="M17.3792 0.1875H16.301L10.5516 3.9468V0.1875H7.44817V3.9468L1.69874 0.1875H0.620716C0.277944 0.1875 0 0.464812 0 0.806892V1.29822L4.93275 4.52346H0V7.62063H4.93275L0 10.8459V11.3373C0 11.6793 0.277944 11.9567 0.620716 11.9567H1.69888L7.44831 8.19743V11.9567H10.5518V8.19743L16.3011 11.9567H17.3793C17.7221 11.9567 18 11.6793 18 11.3373V10.8459L13.0672 7.6207H17.9999V4.52353H13.0672L17.9999 1.29829V0.806963C17.9999 0.464813 17.722 0.1875 17.3792 0.1875Z" fill="#F5F5F5"/>
<path d="M18 5.14299H9.93101V0.1875H8.06899V5.14299H0V7.00124H8.06899V11.9567H9.93101V7.00124H18V5.14299Z" fill="#FF4B55"/>
<path d="M6.92308 4.34135L0.299943 0.1875C0.123699 0.295236 0 0.476335 0 0.692773V0.724322L5.76708 4.34135H6.92308Z" fill="#FF4B55"/>
<path d="M11.5651 4.34135L17.9999 0.485092C17.8881 0.310382 17.6907 0.1875 17.4549 0.1875H17.3159L10.3845 4.34135H11.5651Z" fill="#FF4B55"/>
<path d="M6.43282 7.80273L0 11.6516C0.110927 11.8305 0.311631 11.9566 0.55128 11.9566H0.672709L7.61538 7.80273H6.43282Z" fill="#FF4B55"/>
<path d="M18 11.4605L12.2121 7.80273H11.0769L17.6495 11.9566C17.8464 11.8676 17.9814 11.6812 18 11.4605Z" fill="#FF4B55"/>
<path d="M9.13069 15.5173L9.58968 17.0696L11.0606 16.4694C11.1861 16.4182 11.3002 16.5648 11.2236 16.6787L10.325 18.0141L11.7001 18.8179C11.8175 18.8865 11.7767 19.0693 11.642 19.0789L10.0625 19.1919L10.3064 20.7945C10.3272 20.9312 10.1623 21.0126 10.071 20.9106L8.99994 19.7161L7.9289 20.9106C7.83756 21.0125 7.67264 20.9312 7.69345 20.7945L7.93737 19.1919L6.35788 19.0789C6.22314 19.0693 6.18243 18.8865 6.29974 18.8179L7.67485 18.0141L6.77629 16.6787C6.69969 16.5648 6.81377 16.4182 6.93928 16.4694L8.41021 17.0696L8.8692 15.5173C8.90853 15.3849 9.09156 15.3849 9.13069 15.5173Z" fill="#F5F5F5"/>
<path d="M27.7577 4.39147L27.9872 5.16757L28.7226 4.86753C28.7853 4.84196 28.8424 4.9152 28.804 4.97219L28.3548 5.63994L29.0423 6.04189C29.101 6.07613 29.0806 6.16757 29.0132 6.17234L28.2236 6.22882L28.3455 7.03005C28.3559 7.09845 28.2734 7.13912 28.2277 7.08812L27.6922 6.49087L27.1567 7.08812C27.1111 7.13904 27.0286 7.09838 27.039 7.03005L27.1609 6.22882L26.3712 6.17234C26.3038 6.16757 26.2835 6.07613 26.3421 6.04189L27.0296 5.63994L26.5804 4.97219C26.5421 4.9152 26.5992 4.84196 26.6619 4.86753L27.3972 5.16757L27.6267 4.39147C27.6466 4.32524 27.7382 4.32524 27.7577 4.39147Z" fill="#F5F5F5"/>
<path d="M22.2194 9.93053L22.4489 10.7066L23.1843 10.4066C23.2469 10.381 23.3041 10.4543 23.2657 10.5113L22.8165 11.179L23.504 11.581C23.5627 11.6152 23.5423 11.7066 23.4749 11.7114L22.6852 11.7679L22.8071 12.5691C22.8176 12.6375 22.7351 12.6782 22.6894 12.6272L22.1539 12.0299L21.6184 12.6272C21.5727 12.6781 21.4903 12.6374 21.5007 12.5691L21.6226 11.7679L20.8329 11.7114C20.7655 11.7066 20.7451 11.6152 20.8038 11.581L21.4913 11.179L21.0421 10.5113C21.0037 10.4543 21.0609 10.381 21.1235 10.4066L21.8589 10.7066L22.0884 9.93053C22.1083 9.8643 22.1998 9.8643 22.2194 9.93053Z" fill="#F5F5F5"/>
<path d="M32.6039 7.85241L32.8334 8.6285L33.5688 8.32847C33.6315 8.3029 33.6886 8.37614 33.6502 8.43313L33.201 9.10088L33.8885 9.50283C33.9472 9.53707 33.9268 9.62851 33.8594 9.63327L33.0697 9.68976L33.1916 10.491C33.2021 10.5594 33.1196 10.6001 33.074 10.5491L32.5385 9.9518L32.003 10.5491C31.9573 10.6 31.8748 10.5593 31.8852 10.491L32.0071 9.68976L31.2174 9.63327C31.15 9.62851 31.1297 9.53707 31.1883 9.50283L31.8758 9.10088L31.4266 8.43313C31.3883 8.37614 31.4454 8.3029 31.5081 8.32847L32.2435 8.6285L32.473 7.85241C32.4928 7.78618 32.5843 7.78618 32.6039 7.85241Z" fill="#F5F5F5"/>
<path d="M27.7577 17.5458L27.9872 18.3219L28.7226 18.0218C28.7853 17.9962 28.8424 18.0694 28.804 18.1264L28.3548 18.7942L29.0423 19.1962C29.101 19.2304 29.0806 19.3218 29.0132 19.3266L28.2236 19.3831L28.3455 20.1843C28.3559 20.2527 28.2734 20.2934 28.2277 20.2424L27.6922 19.6451L27.1567 20.2424C27.1111 20.2933 27.0286 20.2527 27.039 20.1843L27.1609 19.3831L26.3712 19.3266C26.3038 19.3218 26.2835 19.2304 26.3421 19.1962L27.0296 18.7942L26.5804 18.1264C26.5421 18.0694 26.5992 17.9962 26.6619 18.0218L27.3972 18.3219L27.6267 17.5458C27.6466 17.4795 27.7382 17.4795 27.7577 17.5458Z" fill="#F5F5F5"/>
<path d="M29.3389 11.3291L29.1307 11.9826L28.4727 11.9879C28.3875 11.9887 28.3521 12.1024 28.4207 12.1554L28.9501 12.5646L28.7515 13.2213C28.7259 13.3064 28.8184 13.3767 28.8876 13.3248L29.423 12.9243L29.9584 13.3248C30.0277 13.3767 30.1201 13.3063 30.0945 13.2213L29.8959 12.5646L30.4253 12.1554C30.4938 12.1023 30.4585 11.9887 30.3733 11.9879L29.7153 11.9826L29.5071 11.3291C29.4801 11.2445 29.3658 11.2445 29.3389 11.3291Z" fill="#F5F5F5"/>
</g>
<defs>
<clipPath id="clip0_2795_95398">
<rect y="0.75" width="36" height="22.5" rx="2" fill="white"/>
</clipPath>
</defs>
</svg>
