<svg width="24" height="24" viewBox="0 0 24 24" fill="none" xmlns="http://www.w3.org/2000/svg">
<path d="M23 12C23 18.0751 18.0751 23 12 23C5.92487 23 1 18.0751 1 12C1 5.92487 5.92487 1 12 1C18.0751 1 23 5.92487 23 12Z" fill="#0052B5"/>
<path d="M9.25 7.05V1.34655C9.69793 1.23126 10.1569 1.14348 10.625 1.0851C11.0754 1.02893 11.5343 1 12 1C12.4657 1 12.9246 1.02893 13.375 1.0851C13.8431 1.14348 14.3021 1.23126 14.75 1.34655V8.5625L19.425 3.88391C19.9289 4.34521 20.664 5.26531 21.075 5.8125L17.5 9.25H22.6535C22.7687 9.69793 22.8565 10.1569 22.9149 10.625C22.9711 11.0754 23 11.5343 23 12C23 12.4657 22.9711 12.9246 22.9149 13.375C22.8565 13.8431 22.7687 14.3021 22.6535 14.75H16.675L20.8008 18.6C20.2095 19.3872 19.515 20.0925 18.7375 20.6958L14.75 16.675V22.6535C14.3021 22.7687 13.8431 22.8565 13.375 22.9149C12.9246 22.9711 12.4657 23 12 23C11.5343 23 11.0754 22.9711 10.625 22.9149C10.1569 22.8565 9.69792 22.7687 9.25 22.6535L9.25 15.575L4.7125 20.2399C4.09713 19.6952 3.54322 19.0827 3.0625 18.414L7.05 14.75H1.34655C1.23126 14.3021 1.14348 13.8431 1.0851 13.375C1.02893 12.9246 1 12.4657 1 12C1 11.5343 1.02893 11.0754 1.0851 10.625C1.14348 10.1569 1.23126 9.69793 1.34655 9.25H7.1875L3.2 5.39893C3.81031 4.58661 4.53048 3.86154 5.33844 3.24577L9.25 7.05Z" fill="white"/>
<path d="M9.25 9.25L4.22985 4.2138C3.9644 4.47872 3.71241 4.75712 3.475 5.04789L7.875 9.25H9.25Z" fill="#D90026"/>
<path d="M14.75 9.25L19.7701 4.2138C20.0356 4.47871 20.2876 4.75711 20.525 5.04789L16.125 9.25H14.75Z" fill="#D90026"/>
<path d="M14.75 14.8444L19.7701 19.8806C20.0356 19.6157 20.2876 19.3373 20.525 19.0465L16.125 14.8444H14.75Z" fill="#D90026"/>
<path d="M9.25 14.8444L4.22985 19.8806C3.9644 19.6157 3.71241 19.3373 3.475 19.0465L7.875 14.8444H9.25Z" fill="#D90026"/>
<path d="M1.0851 10.625C1.02893 11.0754 1 11.5343 1 12C1 12.4657 1.02893 12.9246 1.0851 13.375H10.625V22.9149C11.0754 22.9711 11.5343 23 12 23C12.4657 23 12.9246 22.9711 13.375 22.9149V13.375H22.9149C22.9711 12.9246 23 12.4657 23 12C23 11.5343 22.9711 11.0754 22.9149 10.625H13.375V1.0851C12.8368 1.00414 12.5608 1 12 1C11.5343 1 11.0754 1.02893 10.625 1.0851V10.625H1.0851Z" fill="#D90026"/>
</svg>
