<svg width="36" height="24" viewBox="0 0 36 24" fill="none" xmlns="http://www.w3.org/2000/svg">
<g clip-path="url(#clip0_2795_95386)">
<path d="M35.3787 23.7733H0.620708C0.277941 23.7733 0 23.4954 0 23.1526V0.808208C0 0.46544 0.277941 0.1875 0.620708 0.1875H35.3787C35.7215 0.1875 35.9995 0.46544 35.9995 0.808208V23.1526C35.9994 23.4954 35.7214 23.7733 35.3787 23.7733Z" fill="#41479B"/>
<path d="M35.9994 0.808208C35.9994 0.46544 35.7214 0.1875 35.3787 0.1875H32.6017L21.103 7.72114V0.1875H14.8962V7.72114L3.39758 0.1875H0.620708C0.277941 0.1875 0 0.46544 0 0.808208V2.41348L9.86531 8.87699H0V15.0838H9.86531L0 21.5474V23.1526C0 23.4954 0.277941 23.7733 0.620708 23.7733H3.39765L14.8964 16.2397V23.7733H21.1032V16.2397L32.6019 23.7733H35.3788C35.7216 23.7733 35.9995 23.4954 35.9995 23.1526V21.5474L26.1342 15.0839H35.9994V8.87706H26.1341L35.9994 2.41348V0.808208Z" fill="#F5F5F5"/>
<path d="M35.9996 10.1184H19.862V0.1875H16.1379V10.1184H0.000244141V13.8424H16.1379V23.7733H19.862V13.8424H35.9996V10.1184Z" fill="#FF4B55"/>
<path d="M12.5818 15.084L0.017334 23.2399C0.0612785 23.5396 0.308423 23.7735 0.620394 23.7735H1.47531L14.8619 15.0841H12.5818V15.084Z" fill="#FF4B55"/>
<path d="M24.3555 15.084H22.0754L35.4425 23.7607C35.7541 23.7275 36 23.4731 36 23.1528V22.6424L24.3555 15.084Z" fill="#FF4B55"/>
<path d="M0 1.4934L11.3749 8.87707H13.6549L0.361611 0.248047C0.149271 0.346694 0 0.558682 0 0.808216V1.4934Z" fill="#FF4B55"/>
<path d="M23.3833 8.87699L35.978 0.701405C35.9257 0.411582 35.6838 0.1875 35.3789 0.1875H34.4896L21.1033 8.87699H23.3833Z" fill="#FF4B55"/>
</g>
<defs>
<clipPath id="clip0_2795_95386">
<rect y="0.75" width="36" height="22.5" rx="2" fill="white"/>
</clipPath>
</defs>
</svg>
