<svg width="16" height="16" viewBox="0 0 16 16" fill="none" xmlns="http://www.w3.org/2000/svg">
<path fill-rule="evenodd" clip-rule="evenodd" d="M6.2847 5.97901H8.7607V7.21234C9.11736 6.50301 10.032 5.86567 11.406 5.86567C14.04 5.86567 14.6654 7.27767 14.6654 9.86834V14.6663H11.9987V10.4583C11.9987 8.98301 11.642 8.15101 10.734 8.15101C9.4747 8.15101 8.95136 9.04767 8.95136 10.4577V14.6663H6.2847V5.97901V5.97901ZM1.71203 14.553H4.3787V5.86567H1.71203V14.553V14.553ZM4.7607 3.03301C4.7608 3.25652 4.71647 3.47783 4.63029 3.68407C4.54411 3.8903 4.4178 4.07735 4.2587 4.23434C3.9363 4.55476 3.4999 4.73411 3.04536 4.73301C2.59162 4.7327 2.15624 4.55381 1.83336 4.23501C1.67484 4.07748 1.54896 3.89022 1.46293 3.68396C1.3769 3.4777 1.33242 3.25649 1.33203 3.03301C1.33203 2.58167 1.51203 2.14967 1.83403 1.83101C2.15662 1.51178 2.59219 1.33281 3.04603 1.33301C3.5007 1.33301 3.9367 1.51234 4.2587 1.83101C4.58003 2.14967 4.7607 2.58167 4.7607 3.03301Z" fill="white"/>
</svg>
