<svg width="16" height="28" viewBox="0 0 16 28" fill="none" xmlns="http://www.w3.org/2000/svg">
<path d="M0.439893 2.56401L11.5 13.5L0.439894 24.44C0.158234 24.7217 -8.30614e-08 25.1037 -6.56499e-08 25.502C-4.82385e-08 25.9003 0.158234 26.2824 0.439894 26.564C0.721554 26.8457 1.10357 27.0039 1.50189 27.0039C1.90022 27.0039 2.28223 26.8457 2.56389 26.564L14.5639 14.564C14.7036 14.4247 14.8144 14.2591 14.89 14.0769C14.9657 13.8947 15.0046 13.6993 15.0046 13.502C15.0046 13.3047 14.9657 13.1093 14.89 12.9271C14.8144 12.7449 14.7036 12.5793 14.5639 12.44L2.56389 0.440008C2.28223 0.158348 1.90022 0.000114358 1.50189 0.000114375C1.10357 0.000114393 0.721553 0.158348 0.439893 0.440008C0.158233 0.721668 -1.13213e-06 1.10368 -1.11472e-06 1.50201C-1.09731e-06 1.90034 0.158233 2.28235 0.439893 2.56401Z" fill="white"/>
</svg>
