<?xml version="1.0" encoding="utf-8"?><svg viewBox="0 0 32 32" xmlns="http://www.w3.org/2000/svg" xmlns:xlink="http://www.w3.org/1999/xlink"><style>:root>svg{display:none}:root>svg:target{display:block}</style><svg viewBox="0 0 24 24" id="arrow-b-l-icon"><path fill-rule="evenodd" clip-rule="evenodd" d="M22.5 12a.75.75 0 0 1-.75.75H4.061l4.72 4.72a.75.75 0 1 1-1.062 1.062l-6-6a.75.75 0 0 1 0-1.062l6-6a.75.75 0 0 1 1.062 1.062l-4.72 4.719h17.69a.75.75 0 0 1 .75.75Z"/></svg><svg viewBox="0 0 24 24" id="arrow-b-r-icon"><path fill-rule="evenodd" clip-rule="evenodd" d="M1.5 12a.75.75 0 0 1 .75-.75h17.689l-4.72-4.718A.75.75 0 1 1 16.28 5.47l6 6a.75.75 0 0 1 0 1.062l-6 6a.751.751 0 0 1-1.062-1.062l4.72-4.72H2.25A.75.75 0 0 1 1.5 12Z"/></svg><svg viewBox="0 0 24 24" id="arrow-l-icon"><path stroke-width="1.5" stroke-linecap="round" stroke-linejoin="round" d="m15 6-6 6 6 6"/></svg><svg viewBox="0 0 32 32" id="arrow-r-d-icon"><path d="m9.333 9.332 13.334 13.333M23 13.105v10H13" stroke-linecap="round" stroke-linejoin="round"/></svg><svg viewBox="0 0 24 24" id="arrow-r-icon"><path stroke-width="1.5" stroke-linecap="round" stroke-linejoin="round" d="m9 18 6-6-6-6"/></svg></svg>