<svg width="118" height="36" viewBox="0 0 118 36" fill="none" xmlns="http://www.w3.org/2000/svg">
<g clip-path="url(#clip0_3421_32850)">
<path d="M73.5533 11.4658L57.4715 36.0001H52.8555L57.2307 29.3257L54.2657 11.4658H58.4525L60.5723 24.2235L68.9372 11.4658H73.5533Z" fill="#2C0E9D"/>
<path fill-rule="evenodd" clip-rule="evenodd" d="M15.6348 9.35529C15.6434 8.83332 15.7239 8.31565 15.8732 7.81672C16.1103 7.26 16.3969 6.72541 16.7297 6.21942C17.1449 5.58725 17.6248 5.00013 18.1618 4.4676L18.4597 4.18293C19.8958 2.80562 21.7399 1.93122 23.7151 1.69096C24.5197 1.58715 25.3373 1.6655 26.1075 1.92021C26.8776 2.17492 27.5807 2.59947 28.1648 3.16249L28.2874 3.29388C28.4319 3.43402 28.5589 3.58731 28.6728 3.73183C28.791 3.8895 28.9137 4.0603 29.0319 4.2311C29.1579 4.4123 29.3508 4.53602 29.568 4.57503C29.6756 4.59435 29.7859 4.59229 29.8927 4.56897C29.9995 4.54565 30.1006 4.50153 30.1903 4.43913C30.28 4.37673 30.3566 4.29727 30.4156 4.20528C30.4746 4.1133 30.5149 4.01059 30.5342 3.90302C30.5536 3.79545 30.5515 3.68513 30.5282 3.57836C30.513 3.50888 30.489 3.44179 30.4569 3.37868C32.3405 5.7989 32.9138 9.31955 32.0235 13.0253C30.7403 18.3071 25.5768 21.4166 19.2001 21.4253L12.7008 21.4297L10.3578 30.364H5.74609L8.82412 18.6706H5.2114C4.41804 18.6706 3.7749 18.0275 3.7749 17.2341C3.7749 16.5394 4.26809 15.9598 4.92346 15.8265C4.83939 15.8669 4.76264 15.9212 4.69654 15.9873C4.61968 16.0642 4.55871 16.1554 4.51711 16.2559C4.47551 16.3563 4.4541 16.4639 4.4541 16.5726C4.4541 16.7363 4.50265 16.8964 4.5936 17.0325C4.68455 17.1686 4.81383 17.2747 4.96508 17.3374C5.05776 17.3757 5.15614 17.3972 5.25537 17.4004H6.10501L14.3079 17.0018L14.2422 16.9317C13.9156 16.5629 13.6224 16.1657 13.3663 15.7449H9.59425L9.88818 14.6282H3.49899C2.70564 14.6282 2.0625 13.9851 2.0625 13.1917C2.0625 12.4997 2.55194 11.9219 3.20358 11.7857C3.12476 11.8251 3.05202 11.8772 2.98853 11.9406C2.8333 12.0958 2.74609 12.3064 2.74609 12.5259C2.74609 12.6896 2.79464 12.8496 2.88559 12.9858C2.97655 13.1219 3.10582 13.228 3.25707 13.2906C3.35522 13.3313 3.45976 13.3525 3.56494 13.3536V13.3581L12.1708 13.0997C12.0501 12.6429 11.9782 12.1746 11.9562 11.7026H10.6583L10.9419 10.6252H1.43649C0.643141 10.6252 0 9.98205 0 9.18869C0 8.49393 0.49322 7.91437 1.14862 7.78105C1.06501 7.82113 0.987958 7.87534 0.92115 7.94215C0.765919 8.09738 0.678711 8.30792 0.678711 8.52745C0.678711 8.69116 0.727257 8.85119 0.81821 8.98731C0.909163 9.12343 1.03844 9.22953 1.18969 9.29218C1.2892 9.3334 1.39529 9.35471 1.50195 9.35529H15.6348ZM28.5064 11.8253C28.6022 11.6306 28.7703 11.481 28.9748 11.4085C29.1794 11.3359 29.4042 11.3462 29.6012 11.437C29.7983 11.5278 29.9521 11.6921 30.0299 11.8947C30.1076 12.0973 30.1031 12.3223 30.0173 12.5216C29.4587 13.7165 28.6699 14.7895 27.6962 15.6793C26.3159 16.9491 24.6282 17.8367 22.7998 18.2545C21.0443 18.6784 19.1983 18.5153 17.5443 17.7902C16.7041 17.4007 15.9494 16.8484 15.3239 16.1654C14.7599 15.5236 14.299 14.7982 13.9575 14.0151C13.625 13.2979 13.4261 12.5262 13.3706 11.7377C13.3751 11.5258 13.4603 11.3236 13.6088 11.1724C13.7573 11.0212 13.9579 10.9323 14.1696 10.9239C14.3814 10.9156 14.5884 10.9883 14.7483 11.1273C14.9083 11.2663 15.0092 11.4611 15.0305 11.672C15.0753 12.2513 15.2236 12.818 15.4684 13.345C15.7279 13.9569 16.0794 14.5255 16.5108 15.0311C16.9882 15.5523 17.5643 15.9736 18.2056 16.2705C19.536 16.8483 21.0194 16.9729 22.4275 16.6253C23.9699 16.2671 25.3921 15.5122 26.5531 14.4355C27.369 13.7019 28.0327 12.815 28.5064 11.8253ZM19.6982 7.69174C19.9151 7.65314 20.1077 7.52999 20.2337 7.34937L20.2249 7.37126C20.436 7.07603 20.6783 6.80439 20.9476 6.56105C21.6092 5.94014 22.4118 5.48925 23.2862 5.24718C23.6338 5.13625 24.0013 5.1019 24.3635 5.14651C24.7256 5.19111 25.0738 5.31361 25.3841 5.50557C25.5116 5.59639 25.6291 5.70064 25.7344 5.81652C26.013 6.16338 26.2071 6.57027 26.3013 7.00504C26.3956 7.43982 26.3874 7.89055 26.2775 8.32163C26.0241 9.52784 25.4155 10.6306 24.53 11.4881L24.333 11.6764C23.5671 12.4325 22.584 12.9302 21.5213 13.0997C21.1419 13.1592 20.7539 13.1301 20.3877 13.0146C20.0215 12.8991 19.6869 12.7004 19.4103 12.434L19.349 12.3684C19.1889 12.1943 19.0547 11.9982 18.9505 11.7859C18.8401 11.5611 18.7606 11.3224 18.714 11.0764C18.6654 10.867 18.5377 10.6846 18.3576 10.5672C18.1775 10.4499 17.959 10.4069 17.7478 10.447C17.5367 10.4872 17.3493 10.6076 17.2248 10.7829C17.1004 10.9581 17.0487 11.1747 17.0804 11.3873C17.1486 11.786 17.2709 12.1735 17.4439 12.5392C17.6181 12.8935 17.8423 13.2209 18.1096 13.5114L18.2147 13.6209C18.6664 14.069 19.2161 14.4059 19.8203 14.605C20.4246 14.8042 21.0669 14.8601 21.6965 14.7684C23.1095 14.5593 24.4209 13.9112 25.4454 12.9158L25.6906 12.6793C26.8276 11.5805 27.6061 10.1639 27.9242 8.61506C28.0859 7.92925 28.0837 7.21498 27.9178 6.53017C27.752 5.84535 27.4271 5.20926 26.9695 4.67345C26.7813 4.46871 26.5713 4.28514 26.3432 4.12601C25.8404 3.79339 25.2708 3.57512 24.6745 3.48659C24.0782 3.39805 23.4698 3.44141 22.8921 3.6136C21.7474 3.92283 20.6952 4.50604 19.8264 5.31287C19.4699 5.63946 19.1498 6.00362 18.8717 6.399C18.7456 6.57962 18.6965 6.8029 18.7351 7.01974C18.7737 7.23657 18.8969 7.42918 19.0775 7.55521C19.2581 7.68123 19.4814 7.73035 19.6982 7.69174Z" fill="#2C0E9D"/>
<path d="M11.7119 7.69982H14.1164C14.1269 7.655 14.1411 7.61101 14.1589 7.56833C14.4498 6.81273 14.8178 6.08922 15.2568 5.40919H12.3149L11.7119 7.69982Z" fill="#2C0E9D"/>
<path d="M12.7092 3.91138H16.3137C16.3378 3.91138 16.3617 3.91254 16.3854 3.91482C16.5746 3.69982 16.7713 3.49125 16.975 3.2895L17.3166 2.96103C18.849 1.50571 20.7676 0.531554 22.8354 0.149414H13.6994L12.7092 3.91138Z" fill="#2C0E9D"/>
<path fill-rule="evenodd" clip-rule="evenodd" d="M11.7109 7.69982H14.1174C14.1279 7.655 14.142 7.61101 14.1599 7.56833C14.4508 6.81273 14.8187 6.08922 15.2577 5.40919H8.12048C7.92186 5.40919 7.73137 5.33029 7.59092 5.18984C7.45048 5.04939 7.37158 4.85891 7.37158 4.66028C7.37158 4.46166 7.45048 4.27117 7.59092 4.13073C7.6377 4.08395 7.69003 4.044 7.74636 4.01151C7.11821 4.09926 6.63477 4.63867 6.63477 5.29099C6.63477 6.00453 7.2132 6.58296 7.92674 6.58296H12.005L11.7109 7.69982ZM12.7084 3.91138H16.3147C16.3387 3.91138 16.3627 3.91254 16.3864 3.91482C16.5756 3.69982 16.7722 3.49125 16.976 3.2895L17.3176 2.96103C18.85 1.50571 20.7686 0.531554 22.8364 0.149414H13.6989L12.7084 3.91138Z" fill="#514AD1"/>
<path fill-rule="evenodd" clip-rule="evenodd" d="M45.0915 23.6911C45.121 23.647 45.1504 23.6025 45.1796 23.5575C46.5811 21.3984 47.1767 18.302 45.5431 16.4144C44.746 15.4831 43.603 15.0232 42.1139 15.0349C38.2949 15.0612 35.5446 18.1925 35.1329 21.8013C34.7957 24.7181 36.4117 26.8685 39.438 26.8509L39.4424 26.8466C41.6559 26.8466 43.3683 25.9487 44.7068 24.2245C44.8386 24.0551 44.9668 23.8773 45.0915 23.6911ZM52.6944 11.4818H48.5864L47.8857 14.1226C47.2375 12.3139 44.7806 11 42.4813 11C38.7849 11 35.2068 13.1547 33.0346 16.365C30.5076 20.0832 30.1134 24.7387 32.4171 28.1066C33.6784 29.9416 35.5528 30.8788 38.0579 30.8788C40.493 30.8788 42.1835 29.9766 44.1324 28.3474L43.6068 30.4015H47.7981L52.6944 11.4818Z" fill="#2C0E9D"/>
<path d="M103.545 15.7014C104.386 15.3295 105.296 15.1385 106.216 15.1408C106.873 15.1207 107.527 15.2277 108.143 15.4561C108.708 15.6764 109.213 16.0255 109.619 16.4756C110.025 16.9257 110.321 17.4644 110.482 18.0488C110.649 18.6917 110.692 19.3606 110.609 20.0196C110.518 20.8714 110.293 21.7035 109.943 22.4853C109.582 23.283 109.102 24.0213 108.52 24.6751C107.933 25.3489 107.202 25.8831 106.382 26.2386C105.517 26.601 104.588 26.7871 103.65 26.7861C102.997 26.8067 102.347 26.6996 101.736 26.4707C101.182 26.2554 100.69 25.9064 100.304 25.4547C99.9083 24.9984 99.6262 24.4552 99.4803 23.8693C99.3242 23.2185 99.2871 22.5449 99.3708 21.8809C99.4616 21.0616 99.6818 20.2619 100.023 19.5116C100.388 18.7199 100.861 17.9828 101.429 17.3218C102.002 16.6327 102.722 16.0805 103.536 15.7058L103.545 15.7014ZM109.365 11.3875C108.607 11.204 107.828 11.1186 107.048 11.1335C105.651 11.1475 104.268 11.4269 102.975 11.9569C101.611 12.5304 100.353 13.3316 99.257 14.3262C96.9526 16.3113 95.5017 19.1079 95.2059 22.135C95.0565 23.298 95.1249 24.4787 95.4073 25.6167C95.6672 26.6274 96.1624 27.5624 96.8526 28.3452C97.5377 29.1265 98.4038 29.7279 99.3752 30.097C100.489 30.4976 101.669 30.6834 102.853 30.6445C104.317 30.6348 105.767 30.3572 107.131 29.8255C109.862 28.7062 112.123 26.68 113.534 24.0882C114.189 22.8368 114.601 21.4726 114.747 20.0678C114.846 19.2445 114.846 18.4123 114.747 17.589C114.652 16.8348 114.452 16.0977 114.152 15.3992C113.87 14.7358 113.486 14.121 113.013 13.5773C112.545 13.054 111.995 12.6103 111.384 12.2634C110.758 11.8731 110.078 11.5779 109.365 11.3875Z" fill="#514AD1"/>
<path d="M80.6022 7.31875L75.6314 26.1991H78.8854C85.4767 26.1991 89.3964 23.1334 90.3161 16.2487C91.0825 10.4107 88.9365 7.31875 83.4095 7.31875H80.6022ZM77.0986 3.14941H82.446C86.3394 3.14941 88.3146 3.58736 90.1716 4.46327C94.3935 6.47787 95.6635 11.418 95.0548 16.0691C94.411 20.9918 91.7394 26.4137 86.9482 28.7699C84.8066 29.8253 82.8664 30.3509 79.3102 30.3509H69.9336L77.0986 3.14941Z" fill="#514AD1"/>
</g>
<defs>
<clipPath id="clip0_3421_32850">
<rect width="118" height="36" fill="white"/>
</clipPath>
</defs>
</svg>
