<svg width="118" height="36" viewBox="0 0 118 36" fill="none" xmlns="http://www.w3.org/2000/svg">
    <g clip-path="url(#clip0_214_29244)">
        <path d="M73.5533 11.4648L57.4715 35.9991H52.8555L57.2307 29.3247L54.2657 11.4648H58.4525L60.5723 24.2225L68.9372 11.4648H73.5533Z" fill="#0040FF"/>
        <path fill-rule="evenodd" clip-rule="evenodd" d="M15.6348 9.35431C15.6434 8.83234 15.7239 8.31467 15.8732 7.81574C16.1103 7.25902 16.3969 6.72443 16.7297 6.21844C17.1449 5.58627 17.6248 4.99915 18.1618 4.46662L18.4597 4.18195C19.8958 2.80464 21.7399 1.93024 23.7151 1.68998C24.5197 1.58617 25.3373 1.66452 26.1075 1.91923C26.8776 2.17394 27.5807 2.59849 28.1648 3.16151L28.2874 3.2929C28.4319 3.43304 28.5589 3.58633 28.6728 3.73085C28.791 3.88852 28.9137 4.05932 29.0319 4.23012C29.1579 4.41132 29.3508 4.53504 29.568 4.57405C29.6756 4.59337 29.7859 4.59131 29.8927 4.56799C29.9995 4.54467 30.1006 4.50055 30.1903 4.43815C30.28 4.37575 30.3566 4.29629 30.4156 4.2043C30.4746 4.11232 30.5149 4.00961 30.5342 3.90204C30.5536 3.79447 30.5515 3.68415 30.5282 3.57738C30.513 3.5079 30.489 3.44081 30.4569 3.3777C32.3405 5.79792 32.9138 9.31857 32.0235 13.0243C30.7403 18.3061 25.5768 21.4156 19.2001 21.4243L12.7008 21.4287L10.3578 30.363H5.74609L8.82412 18.6696H5.2114C4.41804 18.6696 3.7749 18.0265 3.7749 17.2331C3.7749 16.5384 4.26809 15.9588 4.92346 15.8255C4.83939 15.8659 4.76264 15.9202 4.69654 15.9863C4.61968 16.0632 4.55871 16.1544 4.51711 16.2549C4.47551 16.3553 4.4541 16.4629 4.4541 16.5716C4.4541 16.7353 4.50265 16.8954 4.5936 17.0315C4.68455 17.1676 4.81383 17.2737 4.96508 17.3364C5.05776 17.3748 5.15614 17.3962 5.25537 17.3994H6.10501L14.3079 17.0008L14.2422 16.9307C13.9156 16.5619 13.6224 16.1647 13.3663 15.7439H9.59425L9.88818 14.6273H3.49899C2.70564 14.6273 2.0625 13.9841 2.0625 13.1908C2.0625 12.4987 2.55194 11.9209 3.20358 11.7847C3.12476 11.8241 3.05202 11.8762 2.98853 11.9397C2.8333 12.0949 2.74609 12.3055 2.74609 12.525C2.74609 12.6887 2.79464 12.8487 2.88559 12.9849C2.97655 13.121 3.10582 13.2271 3.25707 13.2897C3.35522 13.3304 3.45976 13.3515 3.56494 13.3527V13.3572L12.1708 13.0988C12.0501 12.642 11.9782 12.1737 11.9562 11.7017H10.6583L10.9419 10.6242H1.43649C0.643141 10.6242 0 9.98107 0 9.18772C0 8.49296 0.49322 7.91339 1.14862 7.78007C1.06501 7.82015 0.987958 7.87436 0.92115 7.94117C0.765919 8.0964 0.678711 8.30694 0.678711 8.52647C0.678711 8.69018 0.727257 8.85021 0.81821 8.98633C0.909163 9.12245 1.03844 9.22855 1.18969 9.2912C1.2892 9.33242 1.39529 9.35374 1.50195 9.35431H15.6348ZM28.5064 11.8243C28.6022 11.6296 28.7703 11.48 28.9748 11.4075C29.1794 11.3349 29.4042 11.3452 29.6012 11.436C29.7983 11.5268 29.9521 11.6911 30.0299 11.8937C30.1076 12.0963 30.1031 12.3213 30.0173 12.5206C29.4587 13.7155 28.6699 14.7885 27.6962 15.6783C26.3159 16.9481 24.6282 17.8357 22.7998 18.2535C21.0443 18.6774 19.1983 18.5143 17.5443 17.7892C16.7041 17.3997 15.9494 16.8474 15.3239 16.1644C14.7599 15.5226 14.299 14.7972 13.9575 14.0141C13.625 13.2969 13.4261 12.5252 13.3706 11.7367C13.3751 11.5248 13.4603 11.3226 13.6088 11.1714C13.7573 11.0202 13.9579 10.9313 14.1696 10.9229C14.3814 10.9146 14.5884 10.9873 14.7483 11.1263C14.9083 11.2653 15.0092 11.4601 15.0305 11.671C15.0753 12.2503 15.2236 12.817 15.4684 13.344C15.7279 13.9559 16.0794 14.5245 16.5108 15.0301C16.9882 15.5513 17.5643 15.9726 18.2056 16.2695C19.536 16.8473 21.0194 16.9719 22.4275 16.6243C23.9699 16.2661 25.3921 15.5112 26.5531 14.4345C27.369 13.7009 28.0327 12.814 28.5064 11.8243ZM19.6982 7.69076C19.9151 7.65216 20.1077 7.52901 20.2337 7.34839L20.2249 7.37028C20.436 7.07505 20.6783 6.80341 20.9476 6.56007C21.6092 5.93916 22.4118 5.48827 23.2862 5.2462C23.6338 5.13527 24.0013 5.10092 24.3635 5.14553C24.7256 5.19013 25.0738 5.31263 25.3841 5.50459C25.5116 5.59541 25.6291 5.69966 25.7344 5.81554C26.013 6.1624 26.2071 6.56929 26.3013 7.00406C26.3956 7.43884 26.3874 7.88957 26.2775 8.32065C26.0241 9.52686 25.4155 10.6296 24.53 11.4871L24.333 11.6754C23.5671 12.4315 22.584 12.9292 21.5213 13.0987C21.1419 13.1582 20.7539 13.1291 20.3877 13.0136C20.0215 12.8981 19.6869 12.6994 19.4103 12.433L19.349 12.3674C19.1889 12.1933 19.0547 11.9972 18.9505 11.7849C18.8401 11.5601 18.7606 11.3214 18.714 11.0754C18.6654 10.866 18.5377 10.6836 18.3576 10.5662C18.1775 10.4489 17.959 10.4059 17.7478 10.446C17.5367 10.4862 17.3493 10.6066 17.2248 10.7819C17.1004 10.9571 17.0487 11.1737 17.0804 11.3863C17.1486 11.785 17.2709 12.1725 17.4439 12.5382C17.6181 12.8925 17.8423 13.2199 18.1096 13.5104L18.2147 13.6199C18.6664 14.068 19.2161 14.4049 19.8203 14.604C20.4246 14.8032 21.0669 14.8591 21.6965 14.7674C23.1095 14.5583 24.4209 13.9102 25.4454 12.9148L25.6906 12.6783C26.8276 11.5795 27.6061 10.1629 27.9242 8.61408C28.0859 7.92827 28.0837 7.214 27.9178 6.52919C27.752 5.84437 27.4271 5.20828 26.9695 4.67247C26.7813 4.46773 26.5713 4.28416 26.3432 4.12503C25.8404 3.79241 25.2708 3.57414 24.6745 3.48561C24.0782 3.39707 23.4698 3.44043 22.8921 3.61262C21.7474 3.92185 20.6952 4.50506 19.8264 5.31189C19.4699 5.63848 19.1498 6.00264 18.8717 6.39802C18.7456 6.57864 18.6965 6.80192 18.7351 7.01876C18.7737 7.23559 18.8969 7.4282 19.0775 7.55423C19.2581 7.68025 19.4814 7.72937 19.6982 7.69076Z" fill="#0040FF"/>
        <path d="M11.7119 7.69884H14.1164C14.1269 7.65402 14.1411 7.61003 14.1589 7.56735C14.4498 6.81176 14.8178 6.08824 15.2568 5.40821H12.3149L11.7119 7.69884Z" fill="#0040FF"/>
        <path d="M12.7092 3.9104H16.3137C16.3378 3.9104 16.3617 3.91156 16.3854 3.91385C16.5746 3.69885 16.7713 3.49028 16.975 3.28852L17.3166 2.96005C18.849 1.50474 20.7676 0.530577 22.8354 0.148438H13.6994L12.7092 3.9104Z" fill="#0040FF"/>
        <path fill-rule="evenodd" clip-rule="evenodd" d="M11.7109 7.69884H14.1174C14.1279 7.65402 14.142 7.61003 14.1599 7.56735C14.4508 6.81176 14.8187 6.08824 15.2577 5.40821H8.12048C7.92186 5.40821 7.73137 5.32931 7.59092 5.18886C7.45048 5.04841 7.37158 4.85793 7.37158 4.6593C7.37158 4.46068 7.45048 4.27019 7.59092 4.12975C7.6377 4.08297 7.69003 4.04302 7.74636 4.01054C7.11821 4.09828 6.63477 4.63769 6.63477 5.29002C6.63477 6.00355 7.2132 6.58199 7.92674 6.58199H12.005L11.7109 7.69884ZM12.7084 3.9104H16.3147C16.3387 3.9104 16.3627 3.91156 16.3864 3.91385C16.5756 3.69885 16.7722 3.49028 16.976 3.28852L17.3176 2.96005C18.85 1.50474 20.7686 0.530577 22.8364 0.148438H13.6989L12.7084 3.9104Z" fill="#0040FF"/>
        <path fill-rule="evenodd" clip-rule="evenodd" d="M45.0915 23.6911C45.121 23.647 45.1504 23.6025 45.1796 23.5575C46.5811 21.3984 47.1767 18.302 45.5431 16.4144C44.746 15.4831 43.603 15.0232 42.1139 15.0349C38.2949 15.0612 35.5446 18.1925 35.1329 21.8013C34.7957 24.7181 36.4117 26.8685 39.438 26.8509L39.4424 26.8466C41.6559 26.8466 43.3683 25.9487 44.7068 24.2245C44.8386 24.0551 44.9668 23.8773 45.0915 23.6911ZM52.6944 11.4818H48.5864L47.8857 14.1226C47.2375 12.3139 44.7806 11 42.4813 11C38.7849 11 35.2068 13.1547 33.0346 16.365C30.5076 20.0832 30.1134 24.7387 32.4171 28.1066C33.6784 29.9416 35.5528 30.8788 38.0579 30.8788C40.493 30.8788 42.1835 29.9766 44.1324 28.3474L43.6068 30.4015H47.7981L52.6944 11.4818Z" fill="#0040FF"/>
        <path d="M103.545 15.7004C104.386 15.3285 105.296 15.1375 106.216 15.1398C106.873 15.1197 107.527 15.2267 108.143 15.4551C108.708 15.6754 109.213 16.0245 109.619 16.4746C110.025 16.9247 110.321 17.4634 110.482 18.0478C110.649 18.6907 110.692 19.3596 110.609 20.0186C110.518 20.8704 110.293 21.7025 109.943 22.4843C109.582 23.282 109.102 24.0203 108.52 24.6741C107.933 25.3479 107.202 25.8821 106.382 26.2376C105.517 26.6 104.588 26.7861 103.65 26.7851C102.997 26.8057 102.347 26.6986 101.736 26.4697C101.182 26.2544 100.69 25.9054 100.304 25.4537C99.9083 24.9974 99.6262 24.4542 99.4803 23.8683C99.3242 23.2175 99.2871 22.5439 99.3708 21.8799C99.4616 21.0606 99.6818 20.2609 100.023 19.5106C100.388 18.7189 100.861 17.9818 101.429 17.3208C102.002 16.6317 102.722 16.0795 103.536 15.7048L103.545 15.7004ZM109.365 11.3865C108.607 11.203 107.828 11.1176 107.048 11.1325C105.651 11.1465 104.268 11.4259 102.975 11.9559C101.611 12.5294 100.353 13.3306 99.257 14.3252C96.9526 16.3103 95.5017 19.1069 95.2059 22.134C95.0565 23.297 95.1249 24.4777 95.4073 25.6157C95.6672 26.6264 96.1624 27.5614 96.8526 28.3442C97.5377 29.1255 98.4038 29.7269 99.3752 30.096C100.489 30.4966 101.669 30.6824 102.853 30.6435C104.317 30.6338 105.767 30.3562 107.131 29.8245C109.862 28.7052 112.123 26.679 113.534 24.0872C114.189 22.8358 114.601 21.4716 114.747 20.0668C114.846 19.2435 114.846 18.4113 114.747 17.588C114.652 16.8338 114.452 16.0967 114.152 15.3982C113.87 14.7348 113.486 14.12 113.013 13.5763C112.545 13.053 111.995 12.6093 111.384 12.2624C110.758 11.8721 110.078 11.5769 109.365 11.3865Z" fill="#0040FF"/>
        <path d="M80.6022 7.31778L75.6314 26.1981H78.8854C85.4767 26.1981 89.3964 23.1324 90.3161 16.2477C91.0825 10.4097 88.9365 7.31778 83.4095 7.31778H80.6022ZM77.0986 3.14844H82.446C86.3394 3.14844 88.3146 3.58639 90.1716 4.4623C94.3935 6.4769 95.6635 11.417 95.0548 16.0681C94.411 20.9908 91.7394 26.4127 86.9482 28.7689C84.8066 29.8243 82.8664 30.3499 79.3102 30.3499H69.9336L77.0986 3.14844Z" fill="#0040FF"/>
    </g>
    <defs>
        <clipPath id="clip0_214_29244">
            <rect width="118" height="36" fill="white"/>
        </clipPath>
    </defs>
</svg>
